# xmcd
#
# Track frame offsets: 
#        150
#        17517
#        41975
#        61395
#        87357
#        115580
#        134310
#        153440
#        173710
#        200590
#        220407
#
# Disc length: 3323 seconds
#
# Revision: 3
# Processed by: cddbd v1.5.2PL0 Copyright (c) Steve Scherf et al.
# Submitted via: ExactAudioCopy v0.99pb5
#
DISCID=960cf90b
DTITLE=Rockin' Johnny Band - More Real Folk Blues
DYEAR=2002
DGENRE=Blues
TTITLE0=Duncan Donuts
TTITLE1=My Man
TTITLE2=Swear To Tell The Truth
TTITLE3=Stop Hurting Me
TTITLE4=Chicken Heads
TTITLE5=Blues in B
TTITLE6=Universal Rock
TTITLE7=Guitar Rag
TTITLE8=Blues After Hours
TTITLE9=Ode To Billy Joe
TTITLE10=Shake For Me
EXTD=YEAR: 2002
EXTT0=
EXTT1=
EXTT2=
EXTT3=
EXTT4=
EXTT5=
EXTT6=
EXTT7=
EXTT8=
EXTT9=
EXTT10=
PLAYORDER=
